<svg width="20" height="20" viewBox="0 0 20 20" fill="none" xmlns="http://www.w3.org/2000/svg">
<path fill-rule="evenodd" clip-rule="evenodd" d="M18.8013 10.2621C18.7995 10.3216 18.7185 10.3373 18.6951 10.2825C18.6851 10.2588 18.6748 10.2351 18.6643 10.2114C18.6453 10.1679 18.6506 10.1174 18.6791 10.0794C18.685 10.0717 18.697 10.0559 18.7113 10.0372C18.7498 9.98688 18.8053 9.99439 18.8053 10.0503C18.8053 10.1236 18.8036 10.187 18.8013 10.2621ZM18.3751 9.09829C18.3095 9.21649 18.1412 9.22193 18.0684 9.10796C18.0571 9.09035 18.0457 9.07274 18.0342 9.05504C17.7715 8.65176 17.4693 8.2559 17.1317 7.87118C17.0488 7.77672 17.1166 7.62848 17.2423 7.6284H17.2453C18.0342 7.6284 18.4477 7.82326 18.574 8.06121C18.6793 8.26021 18.647 8.60824 18.3751 9.09829ZM18.1988 13.2237C18.1565 13.3313 18.1122 13.4383 18.0657 13.5442C18.0584 13.5588 18.0516 13.5736 18.0441 13.5881C17.7537 14.147 17.2665 14.587 16.6155 14.8933C16.4694 14.9619 16.3096 14.8283 16.3531 14.6728C16.5693 13.8991 16.7329 13.06 16.8389 12.1803C16.8587 12.0162 16.9396 11.8657 17.0646 11.7576C17.3323 11.5259 17.5824 11.2946 17.8124 11.065L17.8149 11.0624C17.9281 10.9495 18.1211 10.9981 18.1672 11.1512C18.3945 11.9066 18.4071 12.6102 18.1988 13.2237ZM16.4291 16.0172C16.3628 16.088 16.2952 16.1579 16.2263 16.2268C16.1063 16.3467 15.9835 16.4626 15.8579 16.5746C15.7788 16.6451 15.659 16.5569 15.7038 16.4607C15.7166 16.4333 15.7293 16.4056 15.7419 16.3778C15.7947 16.2615 15.8456 16.1421 15.8952 16.0206C15.9069 15.9919 15.9316 15.9705 15.9616 15.9628C16.0865 15.9311 16.2082 15.8962 16.3268 15.8579C16.4229 15.827 16.4981 15.9435 16.4291 16.0172ZM15.1294 15.3187C14.8666 15.3568 14.5903 15.3814 14.3011 15.3916C13.5956 15.4163 12.8497 15.3554 12.0834 15.2144C11.99 15.1972 11.9721 15.0709 12.0568 15.028C12.2239 14.9434 12.3912 14.8569 12.5583 14.7683C13.7308 14.1469 14.8247 13.4676 15.7824 12.7711C15.8542 12.7189 15.9532 12.7805 15.9386 12.8681C15.8058 13.6663 15.6219 14.4177 15.3909 15.0998C15.3516 15.216 15.2509 15.3011 15.1294 15.3187ZM14.8584 16.3822C14.2298 17.6185 13.4556 18.3127 12.7052 18.2987C11.8895 18.2842 11.0762 17.4348 10.4739 15.9685L10.4732 15.9669C10.435 15.8738 10.4789 15.7673 10.5712 15.7272C10.5775 15.7244 10.5839 15.7216 10.5903 15.7187C10.6299 15.7016 10.6742 15.6985 10.7159 15.7102C11.8425 16.0264 12.9525 16.1914 13.9925 16.1914C14.1056 16.1914 14.2178 16.1895 14.3291 16.1856C14.4594 16.1809 14.5876 16.1736 14.7135 16.1636C14.8304 16.1543 14.9116 16.2777 14.8584 16.3822ZM11.1359 18.7333C10.7621 18.7813 10.3829 18.8059 9.99986 18.8059C8.2883 18.8059 6.65126 18.3209 5.24577 17.4158C5.14907 17.3535 5.19017 17.2034 5.30508 17.1981C5.32891 17.197 5.35119 17.1958 5.37079 17.1946C5.72796 17.1714 6.11959 17.119 6.54394 17.0373C7.4466 16.8637 8.45001 16.5658 9.50066 16.1647C9.59485 16.1288 9.70001 16.1755 9.73834 16.2687L9.73903 16.2704C10.1462 17.2617 10.6473 18.0107 11.21 18.4872C11.303 18.5661 11.2568 18.7178 11.1359 18.7333ZM6.04379 12.5636C6.8197 11.9318 7.72884 11.3014 8.72612 10.7045C8.74753 11.9801 8.8874 13.2047 9.13493 14.3108C8.76506 14.1531 8.39631 13.9794 8.03076 13.7895C7.3227 13.4216 6.65652 13.0094 6.04379 12.5636ZM3.63074 15.9814C3.44563 15.6321 3.68487 14.8232 4.90025 13.5936L4.90085 13.593C5.02777 13.4648 5.01559 13.2544 4.87391 13.1428C4.82522 13.1045 4.77687 13.0658 4.72887 13.0272C4.60782 12.9293 4.43264 12.9383 4.32273 13.0484C4.29865 13.0725 4.28069 13.0906 4.27542 13.0961C3.66786 13.7197 3.24265 14.2969 3.00445 14.8162C2.93693 14.9633 2.733 14.9792 2.64373 14.8441C1.70084 13.4188 1.19438 11.7486 1.19438 10.0003C1.19438 9.37535 1.25931 8.76028 1.38562 8.16283C1.4047 8.07243 1.53222 8.06665 1.55898 8.15506C1.74167 8.75821 2.03902 9.38208 2.4499 10.013C3.00298 10.8623 3.73236 11.6788 4.59668 12.4278C4.8917 12.6835 5.20329 12.9307 5.52827 13.1693C6.18702 13.6527 6.90285 14.0988 7.66443 14.4945C8.00201 14.6699 8.33078 14.8373 8.6675 14.9889C8.85494 15.0733 9.06828 15.0798 9.2596 15.0047C9.41838 14.9426 9.57827 14.8779 9.73912 14.8106C9.91404 14.7377 10.0089 14.547 9.96256 14.3632C9.95678 14.3402 9.9522 14.3217 9.94961 14.3108C9.68447 13.195 9.53709 11.9389 9.51974 10.6232L9.51922 10.6234C9.51904 10.6078 9.51913 10.5919 9.51896 10.5761C9.51818 10.5042 9.51861 10.4318 9.51732 10.36C9.51689 10.3372 9.51758 10.2984 9.51784 10.2754C9.51801 10.2663 9.51784 10.2572 9.51784 10.2481L9.51818 10.248C9.51861 10.1657 9.51922 10.0834 9.52069 10.0008C9.52474 9.77509 9.53286 9.55105 9.54452 9.32881L9.54408 9.32907C9.62584 7.74141 9.89505 6.24959 10.3234 4.99467C10.363 4.87855 10.3011 4.75249 10.185 4.71286C10.0718 4.67419 9.95868 4.63723 9.84575 4.60183C9.73152 4.566 9.60944 4.62765 9.57085 4.74101C9.10661 6.10385 8.82014 7.72069 8.74373 9.43164C8.73398 9.64869 8.61587 9.84624 8.42895 9.95701C7.4156 10.5576 6.48497 11.1942 5.681 11.836C5.5135 11.9697 5.27426 11.9646 5.11229 11.8241C4.3065 11.1255 3.62832 10.3667 3.11565 9.57937C2.10818 8.03237 1.86876 6.57499 2.4417 5.47643C2.44325 5.47384 2.44463 5.47117 2.4461 5.46866C2.51914 5.34745 2.59512 5.22787 2.67421 5.10993C3.33253 4.23853 4.55783 3.73354 6.18288 3.67647C6.2857 3.67284 6.38922 3.67103 6.49369 3.67103C7.49046 3.67103 8.56018 3.8355 9.64812 4.14943L9.64838 4.14917C9.67221 4.15607 9.69604 4.16324 9.71987 4.17023C9.73826 4.17567 9.75665 4.18077 9.77504 4.18629C10.0265 4.2614 10.2786 4.34472 10.531 4.43555C10.5369 4.43762 10.5428 4.43978 10.5487 4.44185C10.6145 4.46559 10.6802 4.48994 10.7459 4.51472C10.7664 4.52249 10.7871 4.53035 10.8076 4.53829C10.8274 4.54589 10.8472 4.55323 10.867 4.56091L10.8668 4.56126C11.3981 4.76691 11.929 5.00607 12.4532 5.27855C13.468 5.80572 14.3968 6.42373 15.2051 7.10174C13.6625 7.45512 11.8694 8.13684 10.0666 9.05599C9.98346 9.09847 9.92872 9.18204 9.92345 9.27528C9.91715 9.38701 9.90886 9.61166 9.9029 9.7902C9.89919 9.90227 10.0177 9.97652 10.117 9.92437L10.1181 9.92377C11.903 8.98649 13.6844 8.28594 15.2142 7.91573C15.5002 7.84657 15.6853 7.57193 15.6451 7.28054C15.617 7.07696 15.5853 6.87657 15.5502 6.67972C15.5062 6.43245 15.3708 6.21134 15.171 6.05921C14.4545 5.51339 13.6649 5.01271 12.8196 4.57343C12.2499 4.27746 11.6719 4.01811 11.0926 3.79691C10.9687 3.7496 10.9156 3.60317 10.9803 3.48739C11.5771 2.41983 12.2869 1.82194 12.9783 1.82194C12.9855 1.82194 12.9927 1.82194 12.9998 1.82211C13.8155 1.8367 14.6288 2.686 15.2311 4.15227C15.5359 4.89452 15.7721 5.75047 15.9336 6.68067C15.9327 6.67989 15.9319 6.6792 15.9311 6.67842C16 7.0754 16.0555 7.48568 16.0967 7.90658C16.0931 7.90882 16.0893 7.91081 16.0858 7.91305C16.0906 7.91797 16.0957 7.92289 16.1006 7.9279C16.1689 8.63414 16.1978 9.36957 16.1843 10.12C16.1758 10.5947 16.1505 11.0628 16.1096 11.5208C15.0184 12.4027 13.6692 13.2803 12.1862 14.0662C11.6988 14.3246 11.2115 14.565 10.729 14.7864C10.7215 14.7898 10.714 14.7932 10.7065 14.7967C10.6697 14.8135 10.6327 14.8306 10.5958 14.8473L10.595 14.847C10.1952 15.0279 9.79912 15.1952 9.40966 15.348L9.40983 15.3484C9.38781 15.357 9.36597 15.3653 9.34404 15.3738C9.31667 15.3845 9.2893 15.3951 9.26202 15.4056C9.19666 15.4306 9.13156 15.4553 9.06664 15.4796C9.04876 15.4862 9.03081 15.4932 9.01293 15.4998C8.93411 15.5291 8.85571 15.5575 8.77758 15.5854C8.76782 15.5889 8.75807 15.5926 8.7484 15.5961L8.74805 15.5959C7.91343 15.8931 7.11834 16.1177 6.3938 16.2571C4.64296 16.5942 3.81852 16.3356 3.63074 15.9814ZM4.88825 2.82863C6.37014 1.76746 8.14093 1.19487 9.99986 1.19487C10.4905 1.19487 10.9749 1.23502 11.4495 1.31332C11.5766 1.3343 11.6192 1.49653 11.5178 1.57605C11.0579 1.93659 10.6306 2.47007 10.2525 3.1619C10.1602 3.33069 9.96446 3.41323 9.77935 3.36108C8.52651 3.00839 7.29387 2.84245 6.15499 2.88242C5.73487 2.89719 5.33703 2.93975 4.96327 3.00865C4.85829 3.02799 4.80148 2.89071 4.88825 2.82863ZM16.9753 9.2461C16.9727 9.14517 17.1022 9.10209 17.1608 9.18429C17.2327 9.28521 17.302 9.38666 17.3684 9.48862C17.4567 9.62417 17.5388 9.75895 17.6151 9.89286C17.6627 9.97635 17.6513 10.0811 17.5865 10.152C17.4837 10.265 17.3721 10.3817 17.251 10.5027C17.2068 10.5469 17.1617 10.5911 17.1158 10.6354C17.0588 10.6904 16.9632 10.6485 16.9663 10.5692C16.972 10.4248 16.9761 10.2798 16.9787 10.1342C16.984 9.83579 16.9828 9.53956 16.9753 9.2461ZM16.0621 3.61396C16.1175 3.66645 16.1722 3.71981 16.2263 3.77394C17.0749 4.62247 17.7284 5.61397 18.1655 6.69379C18.2096 6.80266 18.1171 6.91663 18.0015 6.89582C17.7487 6.85041 17.4641 6.83012 17.149 6.83539C16.9307 6.83901 16.7409 6.68602 16.7026 6.47104C16.5314 5.51105 16.2839 4.62428 15.966 3.85035C15.9478 3.80623 15.9295 3.76263 15.911 3.71946C15.8706 3.62527 15.9878 3.54334 16.0621 3.61396ZM19.3925 8.00371C19.0132 6.20124 18.1211 4.54511 16.7881 3.21206C14.9749 1.39888 12.5642 0.400391 9.99986 0.400391C7.43563 0.400391 5.02483 1.39888 3.21166 3.21206C2.77064 3.65307 2.37841 4.12957 2.03643 4.63481C1.93472 4.77019 1.84364 4.91317 1.76265 5.06279C0.874327 6.5389 0.399902 8.23319 0.399902 10.0003C0.399902 12.5647 1.39848 14.9754 3.21166 16.7885C5.02483 18.6017 7.43563 19.6004 9.99986 19.6004C12.5642 19.6004 14.9749 18.6017 16.7881 16.7885C17.6438 15.9329 18.3179 14.9439 18.7914 13.8687C18.8492 13.7496 18.8997 13.6276 18.9431 13.5031C19.3741 12.4018 19.5999 11.2185 19.5999 10.0003C19.5999 9.32985 19.531 8.67015 19.3978 8.02857C19.396 8.02028 19.3943 8.01199 19.3925 8.00371Z" fill="url(#paint0_linear_445_8260)"/>
<defs>
<linearGradient id="paint0_linear_445_8260" x1="9.9999" y1="0.400391" x2="9.9999" y2="19.6004" gradientUnits="userSpaceOnUse">
<stop stop-color="#BD00FF"/>
<stop offset="1" stop-color="#FF007A"/>
</linearGradient>
</defs>
</svg>
