<svg xmlns="http://www.w3.org/2000/svg" preserveAspectRatio="xMinYMin meet" viewBox="0 0 768 768"><path xmlns="http://www.w3.org/2000/svg" d="M 0 0 H 768 V 768 H 0 Z" fill="black"/><defs><radialGradient id="RadialGradient"><stop offset="70%" stop-color="white" /><stop offset="100%" stop-color="#f1cffa" /></radialGradient></defs><text x="475" y="221" style="fill:white; font-style:italic; font-size:24px; font-family:serif">vous m'aimez</text><path d="M395,421C395,421,566,483 570,452C577,421 395,421 395,421Z" style="fill:url(#RadialGradient);stroke:black;stroke-width:1px;"></path><path d="M395,421C395,421,538,534 552,506C568,478 395,421 395,421Z" style="fill:url(#RadialGradient);stroke:black;stroke-width:1px;"></path><path d="M395,421C395,421,495,573 517,551C541,530 395,421 395,421Z" style="fill:url(#RadialGradient);stroke:black;stroke-width:1px;"></path><path d="M395,421C395,421,442,597 470,582C499,570 395,421 395,421Z" style="fill:url(#RadialGradient);stroke:black;stroke-width:1px;"></path><path d="M395,421C395,421,384,603 416,598C447,595 395,421 395,421Z" style="fill:url(#RadialGradient);stroke:black;stroke-width:1px;"></path><path d="M395,421C395,421,328,590 359,595C390,603 395,421 395,421Z" style="fill:url(#RadialGradient);stroke:black;stroke-width:1px;"></path><path d="M395,421C395,421,278,560 306,575C333,592 395,421 395,421Z" style="fill:url(#RadialGradient);stroke:black;stroke-width:1px;"></path><path d="M395,421C395,421,240,516 262,539C282,564 395,421 395,421Z" style="fill:url(#RadialGradient);stroke:black;stroke-width:1px;"></path><path d="M395,421C395,421,218,463 232,491C243,521 395,421 395,421Z" style="fill:url(#RadialGradient);stroke:black;stroke-width:1px;"></path><path d="M395,421C395,421,214,405 218,436C219,468 395,421 395,421Z" style="fill:url(#RadialGradient);stroke:black;stroke-width:1px;"></path><path d="M395,421C395,421,228,349 222,380C213,410 395,421 395,421Z" style="fill:url(#RadialGradient);stroke:black;stroke-width:1px;"></path><path d="M395,421C395,421,259,300 244,327C226,354 395,421 395,421Z" style="fill:url(#RadialGradient);stroke:black;stroke-width:1px;"></path><path d="M395,421C395,421,304,263 281,285C256,304 395,421 395,421Z" style="fill:url(#RadialGradient);stroke:black;stroke-width:1px;"></path><path d="M395,421C395,421,358,243 329,256C300,266 395,421 395,421Z" style="fill:url(#RadialGradient);stroke:black;stroke-width:1px;"></path><path d="M395,421C395,421,416,240 385,243C353,244 395,421 395,421Z" style="fill:url(#RadialGradient);stroke:black;stroke-width:1px;"></path><text x="391" y="421" style="fill:white; font-style:italic; font-size:24px; font-family:serif">1</text><circle cx="395" cy="421" r="74" stroke="black" fill="#FCBA03" /></svg>